<svg width="22" height="21" viewBox="0 0 22 21" fill="none" xmlns="http://www.w3.org/2000/svg">
<rect x="0.5" width="1.61538" height="1.61538" fill="black"/>
<rect x="0.5" y="1.61523" width="1.61538" height="1.61538" fill="black"/>
<rect x="0.5" y="3.23047" width="1.61538" height="1.61538" fill="black"/>
<rect x="0.5" y="4.8457" width="1.61538" height="1.61538" fill="black"/>
<rect x="0.5" y="6.46191" width="1.61538" height="1.61538" fill="black"/>
<rect x="0.5" y="8.07715" width="1.61538" height="1.61538" fill="black"/>
<rect x="0.5" y="9.69238" width="1.61538" height="1.61538" fill="black"/>
<rect x="0.5" y="11.3076" width="1.61538" height="1.61538" fill="black"/>
<rect x="0.5" y="12.9229" width="1.61538" height="1.61538" fill="black"/>
<rect x="0.5" y="14.5381" width="1.61538" height="1.61538" fill="black"/>
<rect x="0.5" y="16.1543" width="1.61538" height="1.61538" fill="black"/>
<rect x="0.5" y="17.7695" width="1.61538" height="1.61538" fill="black"/>
<rect x="0.5" y="19.3848" width="1.61538" height="1.61538" fill="black"/>
<rect x="18.2693" width="1.61538" height="1.61538" transform="rotate(90 18.2693 0)" fill="black"/>
<rect x="16.6538" width="1.61538" height="1.61538" transform="rotate(90 16.6538 0)" fill="black"/>
<rect x="15.0385" width="1.61538" height="1.61538" transform="rotate(90 15.0385 0)" fill="black"/>
<rect x="13.4231" width="1.61538" height="1.61538" transform="rotate(90 13.4231 0)" fill="black"/>
<rect x="11.8077" width="1.61538" height="1.61538" transform="rotate(90 11.8077 0)" fill="black"/>
<rect x="10.1923" width="1.61538" height="1.61538" transform="rotate(90 10.1923 0)" fill="black"/>
<rect x="8.5769" width="1.61538" height="1.61538" transform="rotate(90 8.5769 0)" fill="black"/>
<rect x="6.96155" width="1.61538" height="1.61538" transform="rotate(90 6.96155 0)" fill="black"/>
<rect x="5.34619" width="1.61538" height="1.61538" transform="rotate(90 5.34619 0)" fill="black"/>
<rect x="3.73071" width="1.61538" height="1.61538" transform="rotate(90 3.73071 0)" fill="black"/>
<rect x="19.8846" y="1.61523" width="1.61538" height="1.61538" transform="rotate(90 19.8846 1.61523)" fill="black"/>
<rect x="5.34619" y="3.23047" width="1.61538" height="1.61538" transform="rotate(90 5.34619 3.23047)" fill="black"/>
<rect x="5.34619" y="1.61523" width="1.61538" height="1.61538" transform="rotate(90 5.34619 1.61523)" fill="black"/>
<rect x="5.34619" y="4.8457" width="1.61538" height="1.61538" transform="rotate(90 5.34619 4.8457)" fill="black"/>
<rect x="16.6538" y="3.23047" width="1.61538" height="1.61538" transform="rotate(90 16.6538 3.23047)" fill="black"/>
<rect x="16.6538" y="1.61523" width="1.61538" height="1.61538" transform="rotate(90 16.6538 1.61523)" fill="black"/>
<rect x="16.6538" y="4.8457" width="1.61538" height="1.61538" transform="rotate(90 16.6538 4.8457)" fill="black"/>
<rect x="13.4231" y="3.23047" width="1.61538" height="1.61538" transform="rotate(90 13.4231 3.23047)" fill="black"/>
<rect x="13.4231" y="1.61523" width="1.61538" height="1.61538" transform="rotate(90 13.4231 1.61523)" fill="black"/>
<rect x="13.4231" y="4.8457" width="1.61538" height="1.61538" transform="rotate(90 13.4231 4.8457)" fill="black"/>
<rect x="16.6538" y="6.46191" width="1.61538" height="1.61538" transform="rotate(90 16.6538 6.46191)" fill="black"/>
<rect x="15.0385" y="6.46191" width="1.61538" height="1.61538" transform="rotate(90 15.0385 6.46191)" fill="black"/>
<rect x="13.4231" y="6.46191" width="1.61538" height="1.61538" transform="rotate(90 13.4231 6.46191)" fill="black"/>
<rect x="11.8077" y="6.46191" width="1.61538" height="1.61538" transform="rotate(90 11.8077 6.46191)" fill="black"/>
<rect x="10.1923" y="6.46191" width="1.61538" height="1.61538" transform="rotate(90 10.1923 6.46191)" fill="black"/>
<rect x="8.5769" y="6.46191" width="1.61538" height="1.61538" transform="rotate(90 8.5769 6.46191)" fill="black"/>
<rect x="6.96155" y="6.46191" width="1.61538" height="1.61538" transform="rotate(90 6.96155 6.46191)" fill="black"/>
<rect x="5.34619" y="6.46191" width="1.61538" height="1.61538" transform="rotate(90 5.34619 6.46191)" fill="black"/>
<rect x="18.2693" y="11.3076" width="1.61538" height="1.61538" transform="rotate(90 18.2693 11.3076)" fill="black"/>
<rect x="16.6538" y="11.3076" width="1.61538" height="1.61538" transform="rotate(90 16.6538 11.3076)" fill="black"/>
<rect x="15.0385" y="11.3076" width="1.61538" height="1.61538" transform="rotate(90 15.0385 11.3076)" fill="black"/>
<rect x="13.4231" y="11.3076" width="1.61538" height="1.61538" transform="rotate(90 13.4231 11.3076)" fill="black"/>
<rect x="11.8077" y="11.3076" width="1.61538" height="1.61538" transform="rotate(90 11.8077 11.3076)" fill="black"/>
<rect x="10.1923" y="11.3076" width="1.61538" height="1.61538" transform="rotate(90 10.1923 11.3076)" fill="black"/>
<rect x="8.5769" y="11.3076" width="1.61538" height="1.61538" transform="rotate(90 8.5769 11.3076)" fill="black"/>
<rect x="6.96155" y="11.3076" width="1.61538" height="1.61538" transform="rotate(90 6.96155 11.3076)" fill="black"/>
<rect x="5.34619" y="11.3076" width="1.61538" height="1.61538" transform="rotate(90 5.34619 11.3076)" fill="black"/>
<rect x="18.2693" y="12.9229" width="1.61538" height="1.61538" transform="rotate(90 18.2693 12.9229)" fill="black"/>
<rect x="5.34619" y="12.9229" width="1.61538" height="1.61538" transform="rotate(90 5.34619 12.9229)" fill="black"/>
<rect x="18.2693" y="14.5381" width="1.61538" height="1.61538" transform="rotate(90 18.2693 14.5381)" fill="black"/>
<rect x="5.34619" y="14.5381" width="1.61538" height="1.61538" transform="rotate(90 5.34619 14.5381)" fill="black"/>
<rect x="18.2693" y="16.1543" width="1.61538" height="1.61538" transform="rotate(90 18.2693 16.1543)" fill="black"/>
<rect x="5.34619" y="16.1543" width="1.61538" height="1.61538" transform="rotate(90 5.34619 16.1543)" fill="black"/>
<rect x="5.34619" y="17.7695" width="1.61538" height="1.61538" transform="rotate(90 5.34619 17.7695)" fill="black"/>
<rect x="18.2693" y="17.7695" width="1.61538" height="1.61538" transform="rotate(90 18.2693 17.7695)" fill="black"/>
<rect x="19.8846" y="19.3848" width="1.61538" height="1.61538" transform="rotate(90 19.8846 19.3848)" fill="black"/>
<rect x="18.2693" y="19.3848" width="1.61538" height="1.61538" transform="rotate(90 18.2693 19.3848)" fill="black"/>
<rect x="16.6538" y="19.3848" width="1.61538" height="1.61538" transform="rotate(90 16.6538 19.3848)" fill="black"/>
<rect x="15.0385" y="19.3848" width="1.61538" height="1.61538" transform="rotate(90 15.0385 19.3848)" fill="black"/>
<rect x="13.4231" y="19.3848" width="1.61538" height="1.61538" transform="rotate(90 13.4231 19.3848)" fill="black"/>
<rect x="11.8077" y="19.3848" width="1.61538" height="1.61538" transform="rotate(90 11.8077 19.3848)" fill="black"/>
<rect x="10.1923" y="19.3848" width="1.61538" height="1.61538" transform="rotate(90 10.1923 19.3848)" fill="black"/>
<rect x="8.5769" y="19.3848" width="1.61538" height="1.61538" transform="rotate(90 8.5769 19.3848)" fill="black"/>
<rect x="6.96155" y="19.3848" width="1.61538" height="1.61538" transform="rotate(90 6.96155 19.3848)" fill="black"/>
<rect x="5.34619" y="19.3848" width="1.61538" height="1.61538" transform="rotate(90 5.34619 19.3848)" fill="black"/>
<rect x="3.73071" y="19.3848" width="1.61538" height="1.61538" transform="rotate(90 3.73071 19.3848)" fill="black"/>
<rect x="21.5" y="21" width="1.61538" height="1.61538" transform="rotate(-180 21.5 21)" fill="black"/>
<rect x="21.5" y="19.3848" width="1.61538" height="1.61538" transform="rotate(-180 21.5 19.3848)" fill="black"/>
<rect x="21.5" y="17.7695" width="1.61538" height="1.61538" transform="rotate(-180 21.5 17.7695)" fill="black"/>
<rect x="21.5" y="16.1543" width="1.61538" height="1.61538" transform="rotate(-180 21.5 16.1543)" fill="black"/>
<rect x="21.5" y="14.5381" width="1.61538" height="1.61538" transform="rotate(-180 21.5 14.5381)" fill="black"/>
<rect x="21.5" y="12.9229" width="1.61538" height="1.61538" transform="rotate(-180 21.5 12.9229)" fill="black"/>
<rect x="21.5" y="11.3076" width="1.61538" height="1.61538" transform="rotate(-180 21.5 11.3076)" fill="black"/>
<rect x="21.5" y="9.69238" width="1.61538" height="1.61538" transform="rotate(-180 21.5 9.69238)" fill="black"/>
<rect x="21.5" y="8.07715" width="1.61538" height="1.61538" transform="rotate(-180 21.5 8.07715)" fill="black"/>
<rect x="21.5" y="6.46191" width="1.61538" height="1.61538" transform="rotate(-180 21.5 6.46191)" fill="black"/>
<rect x="21.5" y="4.8457" width="1.61538" height="1.61538" transform="rotate(-180 21.5 4.8457)" fill="black"/>
</svg>
